# Blender v2.77 (sub 0) OBJ File: ''
# www.blender.org
mtllib Venomian Interceptor.mtl
o Mesh_0065
v 4.451802 0.762200 -0.286800
v 1.465401 1.669801 -0.313000
v 4.451802 -0.000000 0.429500
v 1.465401 -0.000000 1.222501
v 1.465401 -1.669801 -0.313000
v 1.465401 1.669801 -1.828301
v 4.451802 0.762201 -1.828301
v 4.451802 0.000000 -1.828301
v 1.465401 0.000000 -1.828301
v 1.465401 -1.669800 -1.828301
v 4.451802 -0.762200 -1.828301
v 4.451802 -0.762200 -0.286800
v 3.234001 0.510102 -4.470002
v 3.234001 0.510100 -1.564201
v 3.834902 0.510102 -4.470002
v 3.834902 0.510100 -1.564201
v 4.046902 0.000002 -4.470002
v 4.046902 0.000000 -1.564201
v 3.834902 -0.510099 -4.470002
v 3.834902 -0.510100 -1.564201
v 3.234001 -0.510099 -4.470002
v 3.234001 -0.510100 -1.564201
v 3.024301 0.000002 -4.470002
v 3.024301 0.000000 -1.564201
v 1.926501 -1.769299 -4.673802
v 2.479701 -1.769299 -4.673802
v 1.823701 -2.434100 -2.766502
v 2.580001 -2.434100 -2.766502
v 1.771401 -1.009200 -1.946501
v 2.635001 -1.009200 -1.946501
v 1.805801 -1.009199 -4.882302
v 2.597401 -1.009199 -4.882302
v 2.598801 -2.114901 -2.566602
v 1.804301 -2.114901 -2.566602
v 1.788701 2.025001 -0.913900
v 2.614101 2.025001 -0.913900
v 1.781901 2.025702 -2.566601
v 2.620701 2.025702 -2.566601
v 1.771401 1.015101 -1.946501
v 1.788701 -0.000000 0.700000
v 2.614101 -0.000000 0.700000
v 2.635001 1.015101 -1.946501
v 2.614101 -2.093301 -0.913901
v 1.788701 -2.093301 -0.913901
v 2.614101 2.346902 -2.766501
v 2.505201 1.640303 -4.673801
v 1.788701 2.346902 -2.766501
v 1.900201 1.640303 -4.673801
v 1.805801 1.015102 -4.866302
v 2.597401 1.015102 -4.866302
v 0.915900 0.523400 -0.267600
v 1.470701 0.979400 -0.010600
v 0.915900 0.523400 -0.970200
v 1.470701 0.979401 -1.227300
v 0.915900 0.000000 -1.204301
v 1.470701 0.000000 -1.603201
v 0.915900 -0.523400 -0.970200
v 1.470701 -0.979400 -1.227301
v 0.915900 -0.523400 -0.267600
v 1.470701 -0.979400 -0.010600
v 0.915900 0.000000 -0.033500
v 1.470701 -0.000000 0.365300
v -4.451802 0.762200 -0.286800
v -4.451802 -0.000000 0.429500
v -1.465401 1.669801 -0.313000
v -1.465401 -0.000000 1.222501
v -1.465401 1.669801 -1.828301
v -4.451802 0.762201 -1.828301
v -4.451802 0.000000 -1.828301
v -1.465401 0.000000 -1.828301
v -1.465401 -1.669800 -1.828301
v -1.465401 -1.669801 -0.313000
v -4.451802 -0.762200 -1.828301
v -4.451802 -0.762200 -0.286800
v -3.234001 0.510100 -1.564201
v -3.234001 0.510102 -4.470002
v -3.834902 0.510100 -1.564201
v -3.834902 0.510102 -4.470002
v -4.046902 0.000000 -1.564201
v -4.046902 0.000002 -4.470002
v -3.834902 -0.510100 -1.564201
v -3.834902 -0.510099 -4.470002
v -3.234001 -0.510100 -1.564201
v -3.234001 -0.510099 -4.470002
v -3.024301 0.000000 -1.564201
v -3.024301 0.000002 -4.470002
v -1.470701 0.979400 -0.010600
v -0.915900 0.523400 -0.267600
v -1.470701 0.979401 -1.227300
v -0.915900 0.523400 -0.970200
v -1.470701 0.000000 -1.603201
v -0.915900 0.000000 -1.204301
v -1.470701 -0.979400 -1.227301
v -0.915900 -0.523400 -0.970200
v -1.470701 -0.979400 -0.010600
v -0.915900 -0.523400 -0.267600
v -1.470701 -0.000000 0.365300
v -0.915900 0.000000 -0.033500
v -1.926501 -1.769299 -4.673802
v -1.823701 -2.434100 -2.766502
v -2.479701 -1.769299 -4.673802
v -2.580001 -2.434100 -2.766502
v -1.771401 -1.009200 -1.946501
v -1.805801 -1.009199 -4.882302
v -2.635001 -1.009200 -1.946501
v -2.597401 -1.009199 -4.882302
v -2.598801 -2.114901 -2.566602
v -1.788701 2.025001 -0.913900
v -1.781901 2.025702 -2.566601
v -2.614101 2.025001 -0.913900
v -2.620701 2.025702 -2.566601
v -1.771401 1.015101 -1.946501
v -1.788701 -0.000000 0.700000
v -1.788701 -2.093301 -0.913901
v -1.804301 -2.114901 -2.566602
v -2.614101 -0.000000 0.700000
v -2.614101 -2.093301 -0.913901
v -2.635001 1.015101 -1.946501
v -2.614101 2.346902 -2.766501
v -1.788701 2.346902 -2.766501
v -2.505201 1.640303 -4.673801
v -1.900301 1.640303 -4.673801
v -1.805801 1.015102 -4.866302
v -2.597401 1.015102 -4.866302
v -0.404500 0.588000 2.037501
v 0.404500 0.588000 2.037501
v -0.404500 0.588000 -0.014700
v 0.404500 0.588000 -0.014700
v -0.296300 0.441801 -1.816501
v 0.296300 0.441801 -1.816501
v -0.296300 -0.297200 -1.816501
v 0.296300 -0.297200 -1.816501
v 0.404500 -0.412001 2.037501
v -0.404500 -0.412001 2.037501
v 0.404500 -0.412000 -0.002200
v -0.404500 -0.412000 -0.002200
v 0.389200 -0.412000 -1.246001
v -0.389200 -0.412000 -1.246001
v -0.218700 1.110901 -1.070000
v -0.259700 1.110900 -0.133700
v 0.218700 1.110901 -1.070000
v 0.259700 1.110900 -0.133700
v 0.365400 0.588000 -1.246000
v -0.365400 0.588000 -1.246000
v 0.898400 0.308000 -0.186400
v 0.845100 0.379900 -1.111500
v 0.898400 -0.158800 -0.186400
v 0.845100 -0.224700 -1.111501
v -0.898400 0.308000 -0.186400
v -0.898400 -0.158800 -0.181100
v -0.845100 0.379900 -1.111500
v -0.845100 -0.224700 -1.111501
v -0.398700 0.050698 3.778902
v -0.367900 -0.347402 3.670702
v 0.398700 0.050698 3.778902
v 0.367900 -0.347402 3.670702
v 0.452200 0.052198 3.670702
v 0.388200 -0.459701 3.100701
v 0.553600 0.050700 1.646601
v 0.448600 -0.459700 1.646601
v -0.553600 0.050700 1.646601
v -0.448600 -0.459700 1.646601
v -0.388200 -0.459701 3.100701
v -0.452200 0.052198 3.670702
v 0.532500 0.050700 0.430700
v -0.532500 0.050700 0.430700
v -0.448600 0.623000 1.646601
v -0.407900 0.566399 3.362701
v 0.448600 0.623000 1.646601
v 0.407900 0.566399 3.362701
v -0.395800 0.345699 3.670702
v 0.395800 0.345699 3.670702
v -0.184500 0.588000 0.062100
v -0.172000 0.898300 0.317400
v 0.184500 0.588000 0.062100
v 0.172000 0.898300 0.317400
v -0.323200 0.588000 0.325300
v -0.307200 0.588000 0.806201
v -0.385900 0.772000 0.675000
v -0.296200 0.784200 0.703800
v -0.297000 0.828400 0.553900
v 0.323200 0.588000 0.325300
v 0.297800 0.787200 0.407200
v 0.297000 0.828400 0.553900
v 0.163500 0.928700 0.689700
v 0.296200 0.784200 0.703800
v 0.162000 0.784200 0.887501
v 0.307200 0.588000 0.806201
v 0.158200 0.588000 1.011101
v -0.162000 0.784200 0.887501
v -0.158200 0.588000 1.011101
v -0.297800 0.787200 0.407200
v 0.385900 0.772000 0.675000
v 0.397000 0.762600 0.427200
v -0.163500 0.928700 0.689700
v -0.397000 0.762600 0.427200
v 0.000000 -0.406900 -0.426000
v 0.000000 0.037400 -0.426000
v 0.812300 -0.406900 0.444500
v 0.812300 0.037400 0.444500
v 0.812300 -0.406900 1.225800
v 0.812300 0.037400 1.225801
v 0.000000 -0.406900 2.076701
v 0.000000 0.037400 2.076701
v -0.812300 -0.406900 1.225800
v -0.812300 0.037400 1.225801
v -0.812300 -0.406900 0.444500
v -0.812300 0.037400 0.444500
v -0.126100 -0.855102 4.576602
v 0.126100 -0.855102 4.576602
v -0.126100 -0.603002 4.576602
v 0.126100 -0.603002 4.576602
v -0.126100 -0.603001 2.879001
v 0.126100 -0.603001 2.879001
v 0.126100 -0.855101 2.879001
v -0.126100 -0.855101 2.879001
v -0.208900 -0.520201 2.000601
v 0.208900 -0.520201 2.000601
v -0.208900 -0.938001 2.000601
v 0.208900 -0.938001 2.000601
v -0.208900 -0.520201 2.731501
v 0.208900 -0.520201 2.731501
v 0.208900 -0.938001 2.731501
v -0.208900 -0.938001 2.731501
vt 0.6953 0.4077
vt 0.5000 0.3428
vt 0.6953 0.4698
vt 0.5000 0.4698
vt 0.5000 0.3428
vt 0.4844 0.2520
vt 0.0117 0.2520
vt 0.4844 0.0098
vt 0.0117 0.0098
vt 0.5117 0.2483
vt 0.5117 0.1162
vt 0.9951 0.2707
vt 0.9951 0.1162
vt 0.4844 0.0098
vt 0.0117 0.0098
vt 0.4844 0.2520
vt 0.0117 0.2520
vt 0.4980 0.9834
vt 0.6775 0.8896
vt 0.6775 0.9834
vt 0.9947 0.4520
vt 0.5652 0.2822
vt 0.7357 0.4520
vt 0.9951 0.2707
vt 0.5117 0.2483
vt 0.6953 0.4077
vt 0.9947 0.2822
vt 0.9947 0.4520
vt 0.7357 0.4520
vt 0.3970 0.8896
vt 0.4980 0.9834
vt 0.6775 0.9834
vt 0.8516 0.0913
vt 0.5078 0.0913
vt 0.8516 0.0913
vt 0.5078 0.0913
vt 0.8516 0.0504
vt 0.5078 0.0504
vt 0.8516 0.0156
vt 0.5078 0.0156
vt 0.8516 0.0156
vt 0.5078 0.0156
vt 0.8516 0.0504
vt 0.5078 0.0504
vt 0.8910 0.0781
vt 0.9683 0.0781
vt 0.8638 0.0195
vt 0.9957 0.0195
vt 0.8910 0.0781
vt 0.9683 0.0781
vt 0.0029 0.9980
vt 0.0029 0.8916
vt 0.3008 0.9980
vt 0.3008 0.8916
vt 0.6352 0.8701
vt 0.6352 0.7744
vt 0.3965 0.8701
vt 0.3965 0.7744
vt 0.9181 0.6559
vt 0.9954 0.6559
vt 0.9294 0.7294
vt 0.9841 0.7294
vt 0.9316 0.9355
vt 0.9541 0.8876
vt 0.7529 0.9717
vt 0.7354 0.9541
vt 0.7529 0.9717
vt 0.7354 0.9541
vt 0.9541 0.8876
vt 0.6680 0.8876
vt 0.5615 0.7568
vt 0.5615 0.6523
vt 0.8000 0.7568
vt 0.8000 0.6523
vt 0.8357 0.6475
vt 0.7842 0.5853
vt 0.7050 0.6475
vt 0.5752 0.5194
vt 0.4004 0.7568
vt 0.7318 0.7568
vt 0.4004 0.6523
vt 0.7318 0.6523
vt 0.9912 0.6279
vt 0.9092 0.6279
vt 0.9912 0.5078
vt 0.9092 0.5078
vt 0.5615 0.6523
vt 0.5615 0.7568
vt 0.8000 0.6523
vt 0.8000 0.7568
vt 0.8357 0.6475
vt 0.7842 0.5853
vt 0.7050 0.6475
vt 0.5752 0.5194
vt 0.8357 0.6475
vt 0.7050 0.6475
vt 0.7842 0.5853
vt 0.8357 0.6475
vt 0.7050 0.6475
vt 0.7842 0.5853
vt 0.4004 0.6523
vt 0.4004 0.7568
vt 0.3008 0.8916
vt 0.0029 0.8916
vt 0.3008 0.9980
vt 0.0029 0.9980
vt 0.9294 0.7294
vt 0.9841 0.7294
vt 0.9181 0.6559
vt 0.9954 0.6559
vt 0.6352 0.8701
vt 0.3965 0.8701
vt 0.6352 0.7744
vt 0.3965 0.7744
vt 0.9316 0.9355
vt 0.7529 0.9717
vt 0.9541 0.8876
vt 0.7354 0.9541
vt 0.6680 0.8876
vt 0.6680 0.8876
vt 0.7354 0.9541
vt 0.9541 0.8876
vt 0.7529 0.9717
vt 0.9316 0.9355
vt 0.3203 0.7675
vt 0.3203 0.8770
vt 0.3633 0.7675
vt 0.3633 0.8770
vt 0.3633 0.7675
vt 0.3633 0.8770
vt 0.3203 0.7675
vt 0.3203 0.8770
vt 0.6680 0.8876
vt 0.9316 0.9355
vt 0.4199 0.5303
vt 0.5820 0.5078
vt 0.4199 0.6182
vt 0.5820 0.6416
vt 0.4199 0.5748
vt 0.5820 0.5748
vt 0.4199 0.5303
vt 0.5820 0.5078
vt 0.4199 0.6182
vt 0.5820 0.6416
vt 0.4199 0.5303
vt 0.5820 0.5078
vt 0.4199 0.5748
vt 0.5820 0.5748
vt 0.4199 0.6182
vt 0.5820 0.6416
vt 0.9287 0.7305
vt 0.9844 0.7305
vt 0.9160 0.6572
vt 0.9980 0.6572
vt 0.9287 0.7305
vt 0.9844 0.7305
vt 0.6953 0.4077
vt 0.6953 0.4698
vt 0.5000 0.3428
vt 0.5000 0.4698
vt 0.4844 0.2520
vt 0.4844 0.0098
vt 0.0117 0.2520
vt 0.0117 0.0098
vt 0.5117 0.2483
vt 0.9951 0.2707
vt 0.5117 0.1162
vt 0.9951 0.1162
vt 0.9951 0.2707
vt 0.4844 0.0098
vt 0.4844 0.2520
vt 0.0117 0.0098
vt 0.0117 0.2520
vt 0.6775 0.8896
vt 0.4980 0.9834
vt 0.6775 0.9834
vt 0.5652 0.2822
vt 0.9947 0.4520
vt 0.7357 0.4520
vt 0.5000 0.3428
vt 0.6953 0.4077
vt 0.9947 0.2822
vt 0.9947 0.4520
vt 0.7357 0.4520
vt 0.3970 0.8896
vt 0.4980 0.9834
vt 0.6775 0.9834
vt 0.5117 0.2483
vt 0.5078 0.0913
vt 0.8516 0.0913
vt 0.5078 0.0913
vt 0.8516 0.0913
vt 0.5078 0.0504
vt 0.8516 0.0504
vt 0.5078 0.0156
vt 0.8516 0.0156
vt 0.5078 0.0156
vt 0.8516 0.0156
vt 0.5078 0.0504
vt 0.8516 0.0504
vt 0.9683 0.0781
vt 0.8910 0.0781
vt 0.9957 0.0195
vt 0.8638 0.0195
vt 0.9683 0.0781
vt 0.8910 0.0781
vt 0.5820 0.5078
vt 0.4199 0.5303
vt 0.5820 0.6416
vt 0.4199 0.6182
vt 0.5820 0.5748
vt 0.4199 0.5748
vt 0.5820 0.5078
vt 0.4199 0.5303
vt 0.5820 0.6416
vt 0.4199 0.6182
vt 0.5820 0.5078
vt 0.4199 0.5303
vt 0.5820 0.5748
vt 0.4199 0.5748
vt 0.5820 0.6416
vt 0.4199 0.6182
vt 0.9844 0.7305
vt 0.9287 0.7305
vt 0.9980 0.6572
vt 0.9160 0.6572
vt 0.9844 0.7305
vt 0.9287 0.7305
vt 0.0029 0.9980
vt 0.3008 0.9980
vt 0.0029 0.8916
vt 0.3008 0.8916
vt 0.6352 0.8701
vt 0.3965 0.8701
vt 0.6352 0.7744
vt 0.3965 0.7744
vt 0.9181 0.6559
vt 0.9294 0.7294
vt 0.9954 0.6559
vt 0.9841 0.7294
vt 0.9316 0.9355
vt 0.7529 0.9717
vt 0.9541 0.8876
vt 0.7354 0.9541
vt 0.6680 0.8876
vt 0.5615 0.7568
vt 0.8000 0.7568
vt 0.5615 0.6523
vt 0.8000 0.6523
vt 0.8357 0.6475
vt 0.7050 0.6475
vt 0.7842 0.5853
vt 0.5752 0.5194
vt 0.7842 0.5853
vt 0.7050 0.6475
vt 0.8357 0.6475
vt 0.4004 0.7568
vt 0.4004 0.6523
vt 0.7318 0.7568
vt 0.7318 0.6523
vt 0.4004 0.6523
vt 0.9912 0.6279
vt 0.9912 0.5078
vt 0.9092 0.6279
vt 0.9092 0.5078
vt 0.5615 0.6523
vt 0.8000 0.6523
vt 0.5615 0.7568
vt 0.8000 0.7568
vt 0.8357 0.6475
vt 0.7050 0.6475
vt 0.7842 0.5853
vt 0.5752 0.5194
vt 0.7842 0.5853
vt 0.7050 0.6475
vt 0.8357 0.6475
vt 0.3008 0.8916
vt 0.3008 0.9980
vt 0.0029 0.8916
vt 0.0029 0.9980
vt 0.9294 0.7294
vt 0.9181 0.6559
vt 0.9841 0.7294
vt 0.9954 0.6559
vt 0.6352 0.8701
vt 0.6352 0.7744
vt 0.3965 0.8701
vt 0.3965 0.7744
vt 0.9316 0.9355
vt 0.9541 0.8876
vt 0.7529 0.9717
vt 0.7354 0.9541
vt 0.6680 0.8876
vt 0.9541 0.8876
vt 0.7354 0.9541
vt 0.7529 0.9717
vt 0.3203 0.7675
vt 0.3633 0.7675
vt 0.3203 0.8770
vt 0.3633 0.8770
vt 0.3633 0.7675
vt 0.3203 0.7675
vt 0.3633 0.8770
vt 0.3203 0.8770
vt 0.9316 0.9355
vt 0.9316 0.9355
vt 0.9541 0.8876
vt 0.7529 0.9717
vt 0.7354 0.9541
vt 0.6680 0.8876
vt 0.6680 0.8876
vt 0.4004 0.7568
vt 0.4518 0.6370
vt 0.4518 0.5191
vt 0.7931 0.6370
vt 0.7931 0.5191
vt 0.9902 0.5732
vt 0.9092 0.5732
vt 0.9902 0.5127
vt 0.9092 0.5127
vt 0.4326 0.7549
vt 0.4326 0.6543
vt 0.6910 0.7549
vt 0.6910 0.6543
vt 0.8000 0.7549
vt 0.8000 0.6543
vt 0.9033 0.5000
vt 0.9033 0.6494
vt 0.6270 0.5000
vt 0.6270 0.6494
vt 0.6270 0.5000
vt 0.6270 0.6494
vt 0.9033 0.5000
vt 0.9033 0.6494
vt 0.9033 0.6553
vt 0.8232 0.6553
vt 0.9033 0.7314
vt 0.8232 0.7314
vt 0.8105 0.6582
vt 0.9155 0.6582
vt 0.9033 0.7314
vt 0.8105 0.6582
vt 0.8232 0.7314
vt 0.9155 0.6582
vt 0.9033 0.7314
vt 0.8232 0.7314
vt 0.8105 0.6582
vt 0.9033 0.7314
vt 0.9155 0.6582
vt 0.8232 0.7314
vt 0.8105 0.6582
vt 0.9853 0.7314
vt 0.9284 0.7314
vt 0.9980 0.6582
vt 0.9155 0.6582
vt 0.8232 0.7314
vt 0.9033 0.7314
vt 0.8232 0.7314
vt 0.9033 0.7314
vt 0.8105 0.6582
vt 0.9980 0.6582
vt 0.9155 0.6582
vt 0.9853 0.7314
vt 0.9284 0.7314
vt 0.9033 0.7314
vt 0.8105 0.6582
vt 0.8232 0.7314
vt 0.9853 0.7314
vt 0.9284 0.7314
vt 0.9980 0.6582
vt 0.9155 0.6582
vt 0.9980 0.6582
vt 0.9853 0.7314
vt 0.9284 0.7314
vt 0.9980 0.6582
vt 0.9853 0.7314
vt 0.9155 0.6582
vt 0.9284 0.7314
vt 0.9853 0.7314
vt 0.9980 0.6582
vt 0.9284 0.7314
vt 0.8105 0.6582
vt 0.9033 0.7314
vt 0.8232 0.7314
vt 0.9033 0.7314
vt 0.8232 0.7314
vt 0.5664 0.8857
vt 0.5664 0.9756
vt 0.6729 0.8857
vt 0.6729 0.9756
vt 0.6729 0.8857
vt 0.7588 0.9961
vt 0.9961 0.8857
vt 0.9961 0.9961
vt 0.9961 0.8857
vt 0.9961 0.9961
vt 0.7588 0.9961
vt 0.2168 0.9980
vt 0.2168 0.8887
vt 0.0078 0.9980
vt 0.0078 0.8887
vt 0.6729 0.9756
vt 0.6729 0.8857
vt 0.6729 0.8857
vt 0.3789 0.8887
vt 0.3789 0.9980
vt 0.3018 0.8887
vt 0.3018 0.9980
vt 0.9961 0.8955
vt 0.7588 0.8955
vt 0.9961 0.8955
vt 0.7588 0.8955
vt 0.7588 0.9961
vt 0.4873 0.9961
vt 0.3252 0.7705
vt 0.3252 0.8750
vt 0.6465 0.7705
vt 0.6465 0.8750
vt 0.7588 0.9961
vt 0.4873 0.9961
vt 0.4395 0.8955
vt 0.0020 0.9980
vt 0.0020 0.8887
vt 0.0617 0.9980
vt 0.0617 0.8887
vt 0.1250 0.9980
vt 0.1250 0.8887
vt 0.3789 0.8887
vt 0.4395 0.8955
vt 0.4395 0.9561
vt 0.3994 0.8955
vt 0.4395 0.9561
vt 0.3993 0.8955
vt 0.3789 0.9980
vt 0.2461 0.8594
vt 0.1680 0.8594
vt 0.2461 0.7852
vt 0.1680 0.7852
vt 0.3086 0.8818
vt 0.3086 0.7607
vt 0.2559 0.7899
vt 0.2500 0.7607
vt 0.2500 0.8213
vt 0.2461 0.7607
vt 0.1680 0.7607
vt 0.1367 0.7607
vt 0.0938 0.7852
vt 0.0605 0.7607
vt 0.0605 0.7852
vt 0.0010 0.7607
vt 0.0010 0.7852
vt 0.0605 0.8594
vt 0.0010 0.8594
vt 0.2461 0.8818
vt 0.1680 0.8818
vt 0.2559 0.7899
vt 0.3086 0.8818
vt 0.2598 0.8505
vt 0.0010 0.8818
vt 0.1367 0.8818
vt 0.0938 0.8594
vt 0.0605 0.8818
vt 0.2598 0.8505
vt 0.2500 0.8818
vt 0.3086 0.7607
vt 0.2500 0.7607
vt 0.2500 0.8213
vt 0.2500 0.8818
vt 0.9961 0.7675
vt 0.9961 0.8789
vt 0.8730 0.7675
vt 0.8730 0.8789
vt 0.6484 0.7675
vt 0.6484 0.8789
vt 0.3235 0.7675
vt 0.3235 0.8789
vt 0.6484 0.7675
vt 0.6484 0.8789
vt 0.8730 0.7675
vt 0.8730 0.8789
vt 0.8259 0.9600
vt 0.7539 0.9600
vt 0.8945 0.8972
vt 0.6885 0.8972
vt 0.7539 0.9600
vt 0.7572 0.9600
vt 0.8291 0.9600
vt 0.6885 0.8972
vt 0.8945 0.8972
vt 0.8291 0.9600
vt 0.7572 0.9600
vt 0.8259 0.9600
vt 0.7930 0.7412
vt 0.7930 0.6699
vt 0.7402 0.7412
vt 0.7402 0.6699
vt 0.7949 0.6406
vt 0.5811 0.6406
vt 0.7949 0.6406
vt 0.5811 0.6406
vt 0.7949 0.6094
vt 0.5811 0.6094
vt 0.7949 0.6094
vt 0.5811 0.6094
vt 0.9302 0.7305
vt 0.9844 0.7305
vt 0.9165 0.6572
vt 0.9971 0.6572
vt 0.6465 0.5926
vt 0.6465 0.5605
vt 0.6563 0.6006
vt 0.6563 0.5508
vt 0.7314 0.6006
vt 0.7314 0.5508
vt 0.6563 0.6006
vt 0.6465 0.5926
vt 0.6563 0.5508
vt 0.6465 0.5605
vt 0.6563 0.6006
vt 0.6465 0.5926
vt 0.6465 0.5605
vt 0.6563 0.5508
vt 0.7314 0.5508
vt 0.7314 0.6006
vt 0.7314 0.5508
vt 0.7314 0.6006
vn 0.1977 0.6713 0.7143
vn 0.2432 0.3634 0.8993
vn 0.1918 0.6643 0.7224
vn 0.2567 0.0000 0.9665
vn 0.2431 0.3634 0.8994
vn 0.2566 -0.0000 0.9665
vn 0.1918 -0.6643 0.7224
vn 0.2908 0.9568 0.0000
vn 0.0000 0.0000 -1.0000
vn 0.2908 -0.9568 -0.0000
vn 1.0000 -0.0000 0.0000
vn -1.0000 0.0000 0.0000
vn 0.1977 -0.6713 0.7143
vn 0.0000 1.0000 0.0000
vn 0.5551 0.8318 0.0000
vn 0.5551 -0.8318 -0.0000
vn -0.5567 -0.8307 0.0000
vn -0.9515 -0.3077 -0.0000
vn -0.9249 0.3802 0.0000
vn 0.0000 -0.9443 -0.3291
vn 0.0000 -0.2645 -0.9644
vn 0.9764 -0.1828 -0.1150
vn 0.9821 -0.1597 -0.0995
vn 0.9972 -0.0653 -0.0357
vn 0.9987 -0.0450 -0.0221
vn -0.9987 -0.0464 -0.0228
vn -0.9993 -0.0341 -0.0169
vn -0.9995 -0.0290 -0.0145
vn -0.9997 -0.0232 -0.0117
vn 0.0000 1.0000 0.0004
vn -0.9999 0.0129 0.0041
vn -0.9999 0.0104 0.0065
vn -0.9999 0.0094 0.0076
vn -0.9999 0.0075 0.0094
vn 0.0000 0.6233 0.7820
vn 0.0000 -0.9999 0.0131
vn 0.9996 -0.0277 -0.0089
vn 0.9998 -0.0186 0.0007
vn 0.9999 -0.0156 0.0038
vn 0.9999 -0.0086 0.0112
vn 0.9999 0.0166 0.0040
vn 0.9999 0.0117 0.0088
vn 0.9999 0.0089 0.0075
vn 0.9999 0.0038 0.0094
vn 1.0000 -0.0000 0.0079
vn -0.9997 -0.0246 -0.0091
vn -0.9999 -0.0136 0.0025
vn -0.9999 -0.0162 -0.0003
vn -0.9999 -0.0071 0.0093
vn -1.0000 0.0000 0.0065
vn 0.0000 -0.6106 0.7920
vn 0.0000 0.9377 -0.3474
vn 0.0000 0.2943 -0.9557
vn 0.0000 -1.0000 -0.0000
vn 0.9756 0.1818 -0.1230
vn 0.9991 0.0319 -0.0282
vn 0.9915 0.1057 -0.0752
vn 0.9999 0.0085 -0.0139
vn 0.9999 0.0062 -0.0129
vn -0.9999 0.0032 -0.0118
vn -0.9999 0.0070 -0.0135
vn -0.9913 0.1071 -0.0766
vn -0.9990 0.0328 -0.0289
vn -0.9745 0.1859 -0.1258
vn 0.0000 0.5284 0.8490
vn 0.0000 -0.5308 0.8475
vn 0.9996 -0.0255 -0.0128
vn -0.9752 -0.1872 -0.1178
vn -0.6350 0.7725 0.0000
vn -0.6850 0.6022 -0.4100
vn -0.6781 0.6156 -0.4016
vn -0.5941 -0.0176 -0.8042
vn -0.5925 -0.0079 -0.8055
vn -0.5739 -0.3089 -0.7584
vn -0.5881 -0.2898 -0.7551
vn -0.6350 -0.7725 -0.0000
vn -0.6849 -0.6022 0.4101
vn -0.6780 -0.6157 0.4016
vn -0.5940 0.0176 0.8043
vn -0.5924 0.0079 0.8056
vn -0.5738 0.3090 0.7585
vn -0.5880 0.2898 0.7551
vn -0.1977 0.6713 0.7143
vn -0.1954 0.6685 0.7175
vn -0.1931 0.6658 0.7207
vn -0.1918 0.6643 0.7224
vn -0.1931 0.6659 0.7206
vn -0.2908 0.9568 0.0000
vn -0.2908 -0.9568 -0.0000
vn -0.1977 -0.6713 0.7143
vn -0.1918 -0.6643 0.7224
vn -0.5551 0.8318 -0.0000
vn -0.5551 -0.8318 0.0000
vn -0.8739 -0.4861 0.0000
vn -0.8739 -0.4861 -0.0001
vn 0.5567 -0.8307 -0.0000
vn 0.9249 0.3802 0.0000
vn 0.6350 0.7725 0.0000
vn 0.6854 0.6067 -0.4027
vn 0.6744 0.5988 -0.4319
vn 0.6853 0.6068 -0.4027
vn 0.6853 0.6067 -0.4027
vn 0.5925 0.0079 -0.8055
vn 0.5941 0.0176 -0.8042
vn 0.5780 -0.3097 -0.7549
vn 0.6044 -0.3253 -0.7273
vn 0.5780 -0.3097 -0.7550
vn 0.6350 -0.7725 -0.0000
vn 0.6853 -0.6068 0.4027
vn 0.6744 -0.5988 0.4320
vn 0.6744 -0.5989 0.4320
vn 0.5924 -0.0079 0.8056
vn 0.5940 -0.0176 0.8043
vn 0.5779 0.3097 0.7550
vn 0.6043 0.3253 0.7273
vn -0.9764 -0.1828 -0.1150
vn -0.9972 -0.0653 -0.0357
vn -0.9909 -0.1145 -0.0703
vn -0.9992 -0.0347 -0.0172
vn -0.9996 -0.0255 -0.0128
vn 0.9999 0.0129 0.0041
vn 0.9999 0.0094 0.0076
vn 1.0000 0.0070 0.0065
vn 1.0000 -0.0000 0.0082
vn 0.9999 -0.0109 0.0020
vn 0.9999 -0.0136 0.0025
vn 0.9997 -0.0246 -0.0091
vn -0.0000 0.0913 0.9958
vn 0.0000 0.0081 1.0000
vn 0.0003 0.0081 1.0000
vn -0.9996 -0.0277 -0.0089
vn -0.9999 -0.0156 0.0038
vn -0.9999 -0.0124 0.0031
vn -1.0000 0.0000 0.0099
vn -0.9999 0.0089 0.0075
vn -0.9999 0.0117 0.0088
vn -0.9999 0.0166 0.0040
vn -0.9756 0.1818 -0.1230
vn -0.9827 0.1526 -0.1046
vn -0.9991 0.0319 -0.0282
vn -0.9998 0.0112 -0.0150
vn 0.9999 0.0032 -0.0118
vn 0.9999 0.0054 -0.0128
vn 0.9999 0.0070 -0.0135
vn 0.9998 0.0115 -0.0155
vn 0.9744 0.1861 -0.1259
vn 0.9752 -0.1872 -0.1178
vn 0.9812 -0.1637 -0.1019
vn 0.9971 -0.0671 -0.0368
vn 0.9987 -0.0464 -0.0228
vn -0.9999 0.0062 -0.0129
vn 0.9997 -0.0232 -0.0117
vn 0.7071 0.0003 0.7071
vn 0.7071 -0.0000 0.7071
vn -0.7071 0.0002 0.7071
vn 0.7071 -0.0002 0.7071
vn -0.7071 -0.0000 0.7071
vn -0.7071 -0.0002 0.7071
vn 0.2534 0.9673 -0.0111
vn 0.6570 0.7534 -0.0288
vn 0.9653 0.2577 -0.0423
vn 0.0000 0.9687 -0.2482
vn -0.6506 0.7130 -0.2615
vn -0.7089 0.6543 -0.2632
vn -0.7089 0.6543 -0.2633
vn -0.9893 0.0102 -0.1458
vn -0.9870 0.0000 -0.1607
vn 0.9927 0.0000 -0.1202
vn 0.9907 0.0103 -0.1359
vn 0.7026 -0.6700 -0.2397
vn 0.6851 -0.6845 -0.2493
vn 0.0000 -0.9803 -0.1973
vn 0.0000 0.2219 0.9751
vn 0.9597 0.2795 -0.0305
vn 0.6521 0.7578 -0.0207
vn 0.7574 0.6529 -0.0028
vn 0.8431 0.5368 -0.0322
vn 0.7852 0.6193 0.0029
vn 0.8409 -0.5411 -0.0099
vn 0.7910 -0.6112 -0.0262
vn 0.4387 -0.8983 0.0226
vn 0.3812 -0.9245 -0.0047
vn 0.0000 0.3190 -0.9478
vn -0.9653 0.2577 -0.0423
vn 0.3494 -0.0000 0.9370
vn 0.3389 0.0082 0.9408
vn 0.3410 0.0066 0.9400
vn 0.3343 0.0118 0.9424
vn 0.2804 0.0067 -0.9599
vn 0.2748 0.0031 -0.9615
vn 0.2775 0.0048 -0.9607
vn 0.2700 0.0000 -0.9629
vn -0.3343 0.0118 0.9424
vn -0.3346 0.0115 0.9423
vn -0.3348 0.0114 0.9422
vn -0.3357 0.0107 0.9419
vn -0.3350 0.0113 0.9422
vn -0.2700 0.0000 -0.9629
vn -0.2748 0.0031 -0.9615
vn -0.2775 0.0048 -0.9607
vn -0.2804 0.0067 -0.9599
vn -0.3812 -0.9245 -0.0047
vn -0.4387 -0.8984 0.0226
vn -0.7911 -0.6112 -0.0261
vn -0.8403 -0.5421 -0.0099
vn -0.8402 -0.5421 -0.0099
vn -0.7852 0.6192 0.0030
vn -0.8444 0.5348 -0.0324
vn -0.7574 0.6529 -0.0028
vn -0.6521 0.7578 -0.0207
vn -0.9597 0.2795 -0.0305
vn 0.0000 -0.2623 0.9650
vn 0.4939 -0.2634 0.8287
vn 0.1441 -0.2699 0.9520
vn 0.1441 -0.2700 0.9520
vn 0.9499 -0.1931 0.2459
vn 0.9757 -0.2058 0.0753
vn 0.9811 -0.1858 0.0532
vn 0.9812 -0.1858 0.0532
vn 0.7529 -0.1508 -0.6406
vn 0.6643 -0.1367 -0.7348
vn -0.6649 -0.1368 -0.7343
vn -0.6643 -0.1367 -0.7348
vn -0.6648 -0.1369 -0.7343
vn -0.6648 -0.1369 -0.7344
vn -0.9787 -0.2013 0.0407
vn -0.9757 -0.2058 0.0753
vn -0.9704 -0.2047 0.1279
vn -0.9309 -0.1964 0.3081
vn -0.8818 -0.1860 0.4334
vn 0.0000 -0.9811 0.1933
vn -0.2799 -0.9600 -0.0049
vn -0.9368 -0.3498 0.0035
vn -0.9835 0.1804 0.0097
vn -0.9832 0.1804 0.0293
vn 0.0000 0.9048 -0.4259
vn 0.9834 0.1804 -0.0171
vn 0.9832 0.1804 0.0293
vn 0.9921 0.1152 0.0496
vn 0.0000 0.3443 0.9388
vn -0.0000 0.6072 0.7946
vn 0.0000 0.9299 0.3678
vn 0.0000 0.9486 0.3164
vn 0.0000 0.9995 0.0330
vn -0.9921 0.1152 0.0496
vn -0.9859 0.1399 0.0918
vn -0.9890 0.1288 0.0727
vn -0.9675 0.1859 0.1712
vn 0.8825 0.1696 0.4387
vn 0.9123 0.1753 0.3701
vn 0.9594 0.1844 0.2133
vn 0.9675 0.1859 0.1712
vn -0.8825 0.1696 0.4387
vn -0.9828 -0.1778 0.0494
vn 0.0000 0.6353 -0.7722
vn -0.9268 -0.3744 0.0308
vn -0.9299 -0.1626 0.3298
vn -0.7818 0.3823 0.4926
vn -0.2980 0.7249 0.6211
vn -0.2163 0.9361 0.2772
vn 0.8463 0.2913 -0.4460
vn 0.8025 0.3634 -0.4732
vn 0.7720 0.5332 -0.3461
vn 0.7232 0.6025 -0.3376
vn 0.6520 0.7583 -0.0023
vn 0.6524 0.7212 0.2329
vn 0.6519 0.7583 -0.0023
vn 0.7188 0.5597 0.4124
vn 0.7314 0.4249 0.5334
vn 0.7618 0.3336 0.5554
vn 0.7622 0.3344 0.5543
vn 0.7618 0.3337 0.5552
vn 0.0000 0.5330 0.8461
vn -0.8463 0.2913 -0.4460
vn -0.7867 0.3865 -0.4814
vn -0.8025 0.3634 -0.4732
vn -0.7458 0.4409 -0.4994
vn 0.9074 -0.4165 0.0564
vn -0.7622 0.3344 0.5543
vn -0.7211 0.6680 -0.1837
vn -0.6145 0.7834 -0.0933
vn -0.2924 0.9508 -0.1028
vn -0.1998 0.9769 -0.0752
vn 0.0000 0.9967 -0.0814
vn -0.7614 0.3330 0.5562
vn -0.9074 -0.4165 0.0564
vn -0.8882 0.4589 0.0224
vn -0.9637 0.2603 -0.0599
vn -0.4775 0.8752 -0.0777
vn -0.2812 0.9243 -0.2580
vn -0.2748 0.3954 -0.8765
vn 0.9268 -0.3744 0.0308
vn 0.8793 -0.0376 0.4748
vn 0.9299 -0.1626 0.3298
vn 0.3279 0.4515 0.8299
vn -0.7114 0.6730 0.2023
vn -0.6787 0.6556 0.3311
vn -0.3870 0.7762 0.4977
vn -0.2342 0.7842 0.5746
vn 0.0000 0.8075 0.5899
vn 0.2163 0.9361 0.2772
vn 0.3511 0.9206 0.1710
vn 0.4294 0.9031 -0.0028
vn 0.3795 0.7595 -0.5283
vn 0.3044 0.7371 -0.6034
vn 0.2748 0.3954 -0.8765
vn 0.7311 0.0000 -0.6822
vn 0.9304 0.0000 -0.3667
vn 0.9303 0.0000 -0.3667
vn 0.9283 0.0002 0.3719
vn 0.9303 -0.0002 -0.3667
vn 0.9283 -0.0000 0.3719
vn -0.0000 0.0001 1.0000
vn -0.0000 -0.0000 1.0000
vn -0.9283 0.0000 0.3719
vn 0.0000 -0.0001 1.0000
vn -0.9303 0.0002 -0.3667
vn -0.9283 -0.0002 0.3719
vn -0.9303 -0.0000 -0.3667
vn -0.9304 0.0000 -0.3667
vn -0.7311 0.0000 -0.6822
vn 0.7071 0.7071 -0.0003
vn 0.7071 0.7071 -0.0000
vn 0.7071 0.7071 0.0001
vn 0.7071 -0.7071 0.0002
vn 0.7071 0.7071 -0.0002
vn 0.7071 -0.7071 -0.0000
vn 0.7071 -0.7071 -0.0001
vn -0.7071 -0.7071 0.0002
vn 0.7071 -0.7071 0.0003
vn -0.7071 -0.7071 -0.0000
vn -0.7071 -0.7071 0.0001
vn -0.7071 -0.7071 -0.0002
vn 0.0000 0.8720 0.4895
vn -0.0000 0.9777 0.2099
vn -0.0001 0.9777 0.2099
vn 0.8720 -0.0000 0.4895
vn 0.5536 -0.5537 0.6221
vn 0.5538 -0.5535 0.6220
vn 0.5536 -0.5537 0.6220
vn 0.5538 -0.5535 0.6221
vn 0.0000 -0.8717 0.4900
vn -0.8720 -0.0000 0.4895
vn -0.9777 -0.0000 0.2099
vn -0.9777 -0.0001 0.2099
vn 0.7071 -0.7071 -0.0003
usemtl Tex_0013_0_dds
s 1
f 1/1/1 2/2/1 3/3/2
f 2/2/3 4/4/4 3/3/2
f 3/3/5 4/4/6 5/5/7
f 2/6/8 1/7/8 6/8/8
f 1/7/8 7/9/8 6/8/8
f 7/10/9 8/11/9 6/12/9
f 8/11/9 9/13/9 6/12/9
f 10/14/10 11/15/10 5/16/10
f 11/15/10 12/17/10 5/16/10
f 1/18/11 8/19/11 7/20/11
f 6/21/12 4/22/12 2/23/12
f 9/13/9 8/11/9 10/24/9
f 8/11/9 11/25/9 10/24/9
f 5/5/13 12/26/13 3/3/13
f 6/21/12 9/27/12 4/22/12
f 9/27/12 10/28/12 4/22/12
f 4/22/12 10/28/12 5/29/12
f 1/18/11 3/30/11 8/19/11
f 3/30/11 12/31/11 8/19/11
f 8/19/11 12/31/11 11/32/11
f 13/33/14 14/34/14 15/35/15
f 14/34/14 16/36/15 15/35/15
f 15/35/15 16/36/15 17/37/11
f 16/36/15 18/38/11 17/37/11
f 17/37/11 18/38/11 19/39/16
f 18/38/11 20/40/16 19/39/16
f 19/39/16 20/40/16 21/41/17
f 20/40/16 22/42/17 21/41/17
f 21/41/17 22/42/17 23/43/12
f 22/42/17 24/44/18 23/43/12
f 23/43/12 24/44/18 13/33/19
f 24/44/19 14/34/19 13/33/19
f 19/45/9 21/46/9 17/47/9
f 21/46/9 23/48/9 17/47/9
f 17/47/9 23/48/9 15/49/9
f 23/48/9 13/50/9 15/49/9
f 25/51/20 26/52/20 27/53/20
f 26/52/20 28/54/20 27/53/20
f 29/55/14 30/56/14 31/57/14
f 30/56/14 32/58/14 31/57/14
f 31/59/21 32/60/21 25/61/21
f 32/60/21 26/62/21 25/61/21
f 26/63/22 32/64/23 28/65/24
f 32/64/23 33/66/25 28/65/24
f 27/67/26 34/68/27 31/69/28
f 34/68/27 29/70/29 31/69/28
f 35/71/30 36/72/30 37/73/30
f 36/72/30 38/74/30 37/73/30
f 37/75/31 39/76/32 35/77/33
f 39/76/32 40/78/34 35/77/33
f 35/79/35 40/80/35 36/81/35
f 40/80/35 41/82/35 36/81/35
f 39/83/9 42/84/9 29/85/9
f 42/84/9 30/86/9 29/85/9
f 43/87/36 44/88/36 33/89/36
f 44/88/36 34/90/36 33/89/36
f 33/91/37 30/92/38 43/93/39
f 30/92/38 41/94/40 43/93/39
f 38/95/41 36/96/42 42/97/43
f 36/96/42 41/94/44 42/97/43
f 42/97/43 41/94/44 30/92/45
f 34/98/46 44/99/47 29/100/48
f 44/99/47 40/78/49 29/100/48
f 29/100/50 40/78/50 39/76/50
f 41/82/51 40/80/51 43/101/51
f 40/80/51 44/102/51 43/101/51
f 45/103/52 46/104/52 47/105/52
f 46/104/52 48/106/52 47/105/52
f 48/107/53 46/108/53 49/109/53
f 46/108/53 50/110/53 49/109/53
f 39/111/54 49/112/54 42/113/54
f 49/112/54 50/114/54 42/113/54
f 46/115/55 45/116/56 50/117/57
f 45/116/56 38/118/58 50/117/57
f 50/117/57 38/118/58 42/119/59
f 39/120/60 37/121/61 49/122/62
f 37/121/61 47/123/63 49/122/62
f 49/122/62 47/123/63 48/124/64
f 45/125/65 47/126/65 38/127/65
f 47/126/65 37/128/65 38/127/65
f 33/129/66 34/130/66 28/131/66
f 34/130/66 27/132/66 28/131/66
f 30/133/67 33/66/67 32/64/67
f 27/67/68 31/69/68 25/134/68
f 51/135/69 52/136/69 53/137/70
f 52/136/69 54/138/71 53/137/70
f 53/137/70 54/138/71 55/139/72
f 54/138/71 56/140/73 55/139/72
f 55/139/72 56/140/73 57/141/74
f 56/140/73 58/142/75 57/141/74
f 57/143/76 58/144/76 59/145/77
f 58/144/76 60/146/78 59/145/77
f 59/145/77 60/146/78 61/147/79
f 60/146/78 62/148/80 61/147/79
f 61/147/79 62/148/80 51/149/81
f 62/148/80 52/150/82 51/149/81
f 57/151/12 59/152/12 55/153/12
f 59/152/12 61/154/12 55/153/12
f 55/153/12 61/154/12 53/155/12
f 61/154/12 51/156/12 53/155/12
f 63/157/83 64/158/84 65/159/85
f 64/158/84 66/160/86 65/159/87
f 65/161/88 67/162/88 63/163/88
f 67/162/88 68/164/88 63/163/88
f 68/165/9 67/166/9 69/167/9
f 67/166/9 70/168/9 69/167/9
f 69/167/9 70/168/9 71/169/9
f 71/170/89 72/171/89 73/172/89
f 72/171/89 74/173/89 73/172/89
f 69/174/12 63/175/12 68/176/12
f 66/177/11 67/178/11 65/179/11
f 72/180/90 64/158/90 74/181/90
f 67/178/11 66/177/11 70/182/11
f 66/177/11 71/183/11 70/182/11
f 71/183/11 66/177/11 72/184/11
f 63/175/12 69/174/12 64/185/12
f 69/174/12 74/186/12 64/185/12
f 74/186/12 69/174/12 73/187/12
f 64/158/91 72/180/91 66/160/91
f 73/188/9 69/167/9 71/169/9
f 75/189/14 76/190/14 77/191/92
f 76/190/14 78/192/92 77/191/92
f 77/191/92 78/192/92 79/193/12
f 78/192/92 80/194/12 79/193/12
f 79/193/12 80/194/12 81/195/93
f 80/194/12 82/196/94 81/195/93
f 81/195/93 82/196/95 83/197/96
f 82/196/54 84/198/96 83/197/96
f 83/197/96 84/198/96 85/199/11
f 84/198/96 86/200/11 85/199/11
f 85/199/11 86/200/11 75/189/97
f 86/200/11 76/190/97 75/189/97
f 84/201/9 82/202/9 86/203/9
f 82/202/9 80/204/9 86/203/9
f 86/203/9 80/204/9 76/205/9
f 80/204/9 78/206/9 76/205/9
f 87/207/98 88/208/98 89/209/99
f 88/208/98 90/210/100 89/209/101
f 89/209/102 90/210/100 91/211/103
f 90/210/100 92/212/104 91/211/103
f 91/211/103 92/212/104 93/213/105
f 92/212/104 94/214/106 93/213/107
f 93/215/108 94/216/108 95/217/109
f 94/216/108 96/218/110 95/217/109
f 95/217/109 96/218/111 97/219/112
f 96/218/111 98/220/113 97/219/112
f 97/219/112 98/220/113 87/221/114
f 98/220/113 88/222/115 87/221/114
f 96/223/11 94/224/11 98/225/11
f 94/224/11 92/226/11 98/225/11
f 98/225/11 92/226/11 88/227/11
f 92/226/11 90/228/11 88/227/11
f 99/229/20 100/230/20 101/231/20
f 100/230/20 102/232/20 101/231/20
f 103/233/14 104/234/14 105/235/14
f 104/234/14 106/236/14 105/235/14
f 104/237/21 99/238/21 106/239/21
f 99/238/21 101/240/21 106/239/21
f 101/241/116 102/242/117 106/243/118
f 102/242/117 107/244/119 106/243/118
f 106/243/118 107/244/119 105/245/120
f 108/246/30 109/247/30 110/248/30
f 109/247/30 111/249/30 110/248/30
f 109/250/121 108/251/122 112/252/123
f 108/251/122 113/253/124 112/252/123
f 112/252/123 113/253/124 103/254/125
f 113/253/124 114/255/126 103/254/125
f 103/254/125 114/255/126 115/256/127
f 108/257/35 110/258/35 113/259/128
f 110/258/35 116/260/129 113/259/128
f 113/259/128 116/260/130 117/261/51
f 112/262/9 103/263/9 118/264/9
f 103/263/9 105/265/9 118/264/9
f 117/266/36 107/267/36 114/268/36
f 107/267/36 115/269/36 114/268/36
f 107/270/131 117/271/132 105/272/133
f 117/271/132 116/273/134 105/272/133
f 105/272/133 116/273/134 118/274/135
f 116/273/134 110/275/136 118/274/135
f 118/274/135 110/275/136 111/276/137
f 119/277/52 120/278/52 121/279/52
f 120/278/52 122/280/52 121/279/52
f 122/281/53 123/282/53 121/283/53
f 123/282/53 124/284/53 121/283/53
f 112/285/54 118/286/54 123/287/54
f 118/286/54 124/288/54 123/287/54
f 121/289/138 124/290/139 119/291/140
f 124/290/139 111/292/141 119/291/140
f 112/293/142 123/294/143 109/295/144
f 123/294/143 120/296/145 109/295/144
f 119/297/65 111/298/65 120/299/65
f 111/298/65 109/300/65 120/299/65
f 107/301/66 102/302/66 115/303/66
f 102/302/66 100/304/66 115/303/66
f 122/305/146 120/296/146 123/294/146
f 99/306/147 104/307/148 100/308/149
f 104/307/148 115/309/150 100/308/149
f 118/310/151 111/292/151 124/290/151
f 115/309/152 104/307/152 103/311/152
f 114/312/51 113/259/51 117/261/51
f 125/313/14 126/314/14 127/315/14
f 126/314/14 128/316/14 127/315/14
f 129/317/9 130/318/9 131/319/9
f 130/318/9 132/320/9 131/319/9
f 133/321/54 134/322/54 135/323/54
f 134/322/54 136/324/54 135/323/54
f 135/323/54 136/324/54 137/325/54
f 136/324/54 138/326/54 137/325/54
f 135/327/11 128/328/11 133/329/153
f 128/328/11 126/330/154 133/329/154
f 133/329/154 126/330/154 134/331/155
f 126/330/156 125/332/157 134/331/157
f 134/331/157 125/332/157 136/333/12
f 125/332/158 127/334/12 136/333/12
f 139/335/14 140/336/14 141/337/159
f 140/336/14 142/338/160 141/337/159
f 141/337/159 142/338/160 128/339/161
f 143/340/162 130/341/162 144/342/163
f 130/341/162 129/343/164 144/342/163
f 144/342/163 129/343/165 138/344/166
f 129/343/164 131/345/167 138/344/166
f 130/346/168 143/347/169 132/348/170
f 143/347/169 137/349/171 132/348/170
f 132/348/170 137/349/171 131/350/172
f 137/349/171 138/351/172 131/350/172
f 142/352/173 140/353/173 128/354/173
f 140/353/173 127/355/173 128/354/173
f 141/337/174 128/339/175 143/340/176
f 128/339/175 145/356/177 143/340/176
f 143/340/176 145/356/177 146/357/178
f 145/356/177 147/358/179 146/357/178
f 146/357/178 147/358/179 148/359/180
f 147/358/179 135/360/181 148/359/180
f 148/359/180 135/360/181 137/349/182
f 143/361/183 144/362/183 141/363/183
f 144/362/183 139/364/183 141/363/183
f 139/365/184 127/366/184 140/367/184
f 147/368/185 145/369/186 135/370/187
f 145/369/186 128/371/188 135/370/187
f 137/372/189 143/340/190 148/373/191
f 143/340/190 146/374/192 148/373/191
f 127/375/193 149/376/194 136/377/195
f 149/376/195 150/378/196 136/377/197
f 151/379/198 144/380/199 152/381/200
f 144/380/199 138/344/201 152/381/200
f 138/344/202 136/382/203 152/383/204
f 136/382/203 150/384/205 152/383/204
f 152/383/204 150/384/206 151/385/207
f 150/384/206 149/386/208 151/385/207
f 151/385/207 149/386/208 144/362/209
f 149/386/208 127/366/210 144/362/209
f 144/362/209 127/366/210 139/365/211
f 153/387/212 154/388/212 155/389/213
f 154/388/212 156/390/214 155/389/213
f 155/389/213 156/390/215 157/391/216
f 156/390/217 158/392/218 157/391/216
f 157/391/216 158/392/219 159/393/220
f 158/392/218 160/394/221 159/393/220
f 159/393/220 160/394/221 161/395/222
f 160/394/221 162/396/223 161/395/224
f 161/395/225 162/396/223 163/397/226
f 158/398/54 163/399/54 160/400/54
f 163/399/54 162/401/54 160/400/54
f 163/397/227 154/402/228 164/403/229
f 154/402/228 153/404/230 164/403/229
f 163/405/231 158/406/231 154/407/231
f 158/406/231 156/408/231 154/407/231
f 165/409/54 159/410/54 166/411/232
f 159/410/54 161/412/233 166/411/232
f 166/411/232 161/412/233 167/413/234
f 161/412/233 168/414/235 167/413/234
f 165/415/236 166/416/236 169/417/236
f 166/416/236 167/418/236 169/417/236
f 159/410/237 165/409/237 169/419/237
f 159/410/238 169/419/238 170/420/238
f 159/410/239 170/420/239 157/421/239
f 153/422/240 155/423/240 171/424/241
f 155/423/240 172/425/241 171/424/241
f 171/424/241 172/425/241 168/426/242
f 172/425/241 170/427/243 168/426/242
f 168/426/242 170/427/243 169/428/244
f 161/412/245 164/429/246 168/414/247
f 164/429/246 171/430/248 168/414/247
f 155/431/249 157/421/250 172/432/251
f 157/421/250 170/420/252 172/432/251
f 171/430/253 164/429/253 153/433/253
f 167/434/244 168/426/244 169/428/244
f 163/397/254 164/403/254 161/395/254
f 173/435/255 174/436/255 175/437/255
f 174/436/255 176/438/255 175/437/255
f 177/439/256 178/440/257 179/441/258
f 178/440/257 180/442/259 179/441/258
f 179/441/258 180/442/259 181/443/260
f 182/444/261 175/437/262 183/445/263
f 175/437/262 176/438/264 183/445/263
f 183/445/263 176/438/264 184/446/265
f 176/438/264 185/447/266 184/446/267
f 184/446/265 185/447/266 186/448/268
f 185/447/266 187/449/269 186/448/268
f 186/448/268 187/449/269 188/450/270
f 187/449/269 189/451/271 188/450/272
f 187/449/273 190/452/273 189/451/273
f 190/452/273 191/453/273 189/451/273
f 177/454/274 192/455/275 173/435/276
f 192/455/275 174/436/277 173/435/276
f 193/456/278 182/457/278 194/458/278
f 190/452/279 178/459/279 191/453/279
f 192/455/280 181/460/281 174/436/282
f 181/460/281 195/461/283 174/436/282
f 174/436/282 195/461/283 176/438/284
f 195/461/283 185/447/284 176/438/284
f 178/459/285 190/452/285 180/462/285
f 177/439/286 179/441/287 196/463/288
f 179/441/287 181/443/289 196/463/288
f 196/463/288 181/443/289 192/464/290
f 196/463/291 192/464/291 177/439/291
f 182/457/292 193/456/293 188/465/294
f 193/456/293 186/466/295 188/465/294
f 181/460/296 180/462/297 195/461/298
f 180/462/297 190/452/299 195/461/298
f 195/461/298 190/452/299 185/447/300
f 190/452/299 187/449/300 185/447/300
f 186/466/301 193/456/302 184/467/303
f 193/456/302 194/458/304 184/467/303
f 184/467/303 194/458/304 183/468/305
f 194/458/304 182/457/306 183/468/305
f 197/469/307 198/470/307 199/471/308
f 198/470/307 200/472/308 199/471/308
f 199/471/309 200/472/309 201/473/310
f 200/472/311 202/474/312 201/473/312
f 201/473/312 202/474/312 203/475/313
f 202/474/312 204/476/314 203/475/314
f 203/475/314 204/476/314 205/477/315
f 204/476/316 206/478/315 205/477/315
f 205/477/315 206/478/315 207/479/317
f 206/478/318 208/480/319 207/479/319
f 207/479/320 208/480/320 197/469/321
f 208/480/320 198/470/321 197/469/321
f 199/481/54 201/482/54 197/483/54
f 201/482/54 203/484/54 197/483/54
f 197/483/54 203/484/54 205/485/54
f 202/486/14 200/487/14 204/488/14
f 200/487/14 198/489/14 204/488/14
f 204/488/14 198/489/14 208/490/14
f 206/491/14 204/488/14 208/490/14
f 207/492/54 197/483/54 205/485/54
f 209/493/314 210/494/314 211/495/314
f 210/494/314 212/496/314 211/495/314
f 213/497/14 211/498/14 214/499/322
f 211/498/14 212/500/323 214/499/323
f 214/499/323 212/500/324 215/501/325
f 212/500/326 210/502/327 215/501/328
f 215/501/327 210/502/327 216/503/329
f 210/502/330 209/504/331 216/503/331
f 216/503/331 209/504/332 213/497/12
f 209/504/333 211/498/12 213/497/12
f 217/505/9 218/506/9 219/507/9
f 218/506/9 220/508/9 219/507/9
f 213/509/334 214/510/334 221/511/335
f 214/510/334 222/512/335 221/511/335
f 221/511/335 222/512/335 217/513/14
f 222/512/336 218/514/14 217/513/14
f 222/515/337 214/516/337 223/517/338
f 214/516/337 215/518/339 223/517/340
f 223/517/340 215/518/341 224/519/342
f 215/518/339 216/520/342 224/519/342
f 216/521/343 213/509/343 224/522/344
f 213/509/343 221/511/344 224/522/344
f 224/522/344 221/511/344 219/523/12
f 221/511/345 217/513/12 219/523/12
f 218/524/11 222/515/11 220/525/330
f 222/515/11 223/517/327 220/525/327
f 220/525/327 223/517/327 219/526/54
f 223/517/346 224/519/54 219/526/54
o Mesh_0068
v -0.521300 1.710202 -3.759101
v -0.331800 0.574600 -1.251400
v 0.521300 1.710202 -3.759101
v 0.331800 0.574600 -1.251400
v 0.823100 1.111302 -4.004302
v 0.644600 0.237200 -1.786101
v -0.823100 1.111302 -4.004302
v -0.644600 0.237200 -1.786101
v -0.331800 -0.408300 -1.251401
v -0.521300 -1.543799 -3.759102
v 0.331800 -0.408300 -1.251401
v 0.521300 -1.543799 -3.759102
v 0.644600 -0.070900 -1.786101
v 0.823100 -0.944899 -4.004303
v -0.823100 -0.944899 -4.004303
v -0.644600 -0.070900 -1.786101
vt 0.3965 0.4949
vt 0.0068 0.5195
vt 0.3965 0.6453
vt 0.0068 0.6207
vt 0.3965 0.7510
vt 0.0556 0.7119
vt 0.3965 0.7510
vt 0.0556 0.7119
vt 0.3965 0.6453
vt 0.0068 0.6207
vt 0.0068 0.5195
vt 0.3965 0.4949
vt 0.0068 0.6207
vt 0.3965 0.6453
vt 0.0556 0.7119
vt 0.3965 0.7510
vt 0.3965 0.7510
vt 0.3965 0.6453
vt 0.0556 0.7119
vt 0.0068 0.6207
vn 0.0000 0.9109 0.4125
vn 0.5467 0.7464 0.3794
vn 0.1300 0.8995 0.4172
vn 0.5467 0.7465 0.3794
vn 0.1300 0.8995 0.4171
vn 0.9036 0.3605 0.2315
vn 0.8712 0.4288 0.2391
vn -0.9045 0.3668 0.2173
vn -0.8798 0.4056 0.2478
vn -0.9002 0.3740 0.2229
vn -0.8757 0.4116 0.2526
vn 0.0000 -0.9110 0.4125
vn 0.3871 -0.8286 0.4044
vn 0.5430 -0.7523 0.3730
vn 0.8798 -0.4056 0.2478
vn 0.9045 -0.3668 0.2173
vn -0.9045 -0.3668 0.2173
vn -0.9002 -0.3740 0.2229
vn -0.8798 -0.4056 0.2478
vn -0.8757 -0.4116 0.2525
usemtl Tex_0013_0_dds
s 1
f 225/527/347 226/528/347 227/529/348
f 226/528/347 228/530/349 227/529/348
f 227/529/350 228/530/351 229/531/352
f 228/530/353 230/532/353 229/531/353
f 231/533/354 232/534/355 225/535/356
f 232/534/355 226/536/357 225/535/356
f 233/537/358 234/538/358 235/539/359
f 234/538/358 236/540/360 235/539/359
f 235/539/359 236/540/360 237/541/361
f 236/540/360 238/542/362 237/541/361
f 239/543/363 234/544/364 240/545/365
f 234/544/364 233/546/366 240/545/365
